<svg width="24" height="24" viewBox="0 0 24 24" fill="none" xmlns="http://www.w3.org/2000/svg">
<path fill-rule="evenodd" clip-rule="evenodd" d="M12 4.49951C7 4.49951 2.73 7.60951 1 11.9995C2.73 16.3895 7 19.4995 12 19.4995C17 19.4995 21.27 16.3895 23 11.9995C21.27 7.60951 17 4.49951 12 4.49951ZM12 16.9995C9.24 16.9995 7 14.7595 7 11.9995C7 9.23951 9.24 6.99951 12 6.99951C14.76 6.99951 17 9.23951 17 11.9995C17 14.7595 14.76 16.9995 12 16.9995ZM12 8.99951C10.34 8.99951 9 10.3395 9 11.9995C9 13.6595 10.34 14.9995 12 14.9995C13.66 14.9995 15 13.6595 15 11.9995C15 10.3395 13.66 8.99951 12 8.99951Z" fill="#211B4E"/>
</svg>
