<svg width="24" height="24" viewBox="0 0 24 24" fill="none" xmlns="http://www.w3.org/2000/svg">
<path fill-rule="evenodd" clip-rule="evenodd" d="M9.01453 2.35224C9.07976 1.85204 9.51263 1.49951 10 1.49951H14C14.4874 1.49951 14.9202 1.85204 14.9855 2.35224L15.3252 4.72175C15.7886 4.93283 16.2233 5.18766 16.6333 5.48126L18.8713 4.58244L18.8791 4.57961C19.3019 4.42589 19.8421 4.56696 20.0955 5.02375L22.0991 8.49001C22.3287 8.91089 22.2426 9.4519 21.8498 9.76195L21.848 9.76338L19.9585 11.2409C19.9832 11.4835 20 11.7347 20 11.9995C20 12.2643 19.9832 12.5156 19.9585 12.7581L21.8498 14.2371C22.2426 14.5471 22.3285 15.0881 22.0989 15.5089L22.093 15.5198L20.0955 18.9753C19.8504 19.4171 19.3243 19.5938 18.8678 19.4151L18.8637 19.4135L16.6305 18.5167C16.2243 18.8037 15.7905 19.0633 15.3253 19.2768L14.9855 21.6468C14.9202 22.147 14.4874 22.4995 14 22.4995H10C9.51263 22.4995 9.07976 22.147 9.01453 21.6468L8.67475 19.2773C8.21141 19.0662 7.77666 18.8114 7.36671 18.5178L5.12865 19.4166L5.12087 19.4194C4.69813 19.5731 4.15796 19.4321 3.90456 18.9753L1.90092 15.509C1.67135 15.0881 1.75745 14.5471 2.15018 14.2371L2.15199 14.2356L4.04163 12.758C4.01683 12.5124 4 12.2576 4 11.9995C4 11.7414 4.01683 11.4866 4.04163 11.2411L2.152 9.76338L2.15018 9.76195C1.77208 9.46346 1.64783 8.92078 1.90812 8.47756L3.90453 5.02376C4.14956 4.58197 4.67566 4.40525 5.1322 4.58389L5.13635 4.58551L7.36947 5.48237C7.77574 5.19528 8.20955 4.93575 8.67468 4.72227L9.01453 2.35224ZM19.43 12.9795L18.9339 12.9175C18.9726 12.6073 19 12.3102 19 11.9995C19 11.6888 18.9726 11.3918 18.9339 11.0815L18.8987 10.8003L21.2249 8.98119C21.2248 8.97895 21.2242 8.9756 21.2223 8.97133L19.2271 5.51973C19.2262 5.51963 19.225 5.51919 19.2239 5.51919C19.2231 5.5192 19.2224 5.51925 19.2219 5.5193L16.4814 6.61988L16.2551 6.44582C15.7678 6.07092 15.2462 5.76405 14.6804 5.53216L14.4157 5.42367L13.9964 2.49951H10.0036L9.58433 5.42367L9.31961 5.53216C8.75733 5.76261 8.23415 6.0789 7.74 6.44951L7.51484 6.61838L4.77416 5.51771L4.77302 5.51981L2.773 8.97954L5.1013 10.8003L5.06614 11.0815C5.02742 11.3913 5 11.6985 5 11.9995C5 12.3005 5.02742 12.6077 5.06614 12.9175L5.1013 13.1988L2.7751 15.0178C2.7752 15.0201 2.77577 15.0234 2.77774 15.0277L4.77289 18.4793C4.77382 18.4794 4.77503 18.4798 4.77606 18.4798C4.77691 18.4798 4.7776 18.4798 4.77813 18.4797L7.51858 17.3791L7.74486 17.5532C8.23224 17.9281 8.75382 18.235 9.31961 18.4669L9.58433 18.5753L10.0036 21.4995H13.9964L14.4157 18.5753L14.6804 18.4669C15.2427 18.2364 15.7659 17.9201 16.26 17.5495L16.4852 17.3806L19.2258 18.4813L19.227 18.4792L21.2223 15.0277C21.2242 15.0234 21.2248 15.0201 21.2249 15.0178L19.122 13.3734L19.43 12.9795ZM12 8.99951C10.3461 8.99951 9 10.3457 9 11.9995C9 13.6534 10.3461 14.9995 12 14.9995C13.6539 14.9995 15 13.6534 15 11.9995C15 10.3457 13.6539 8.99951 12 8.99951ZM8 11.9995C8 9.79337 9.79386 7.99951 12 7.99951C14.2061 7.99951 16 9.79337 16 11.9995C16 14.2057 14.2061 15.9995 12 15.9995C9.79386 15.9995 8 14.2057 8 11.9995Z" fill="#211B4E"/>
</svg>
