<svg width="24" height="24" viewBox="0 0 24 24" fill="none" xmlns="http://www.w3.org/2000/svg">
<path fill-rule="evenodd" clip-rule="evenodd" d="M0 11.5C0 5.70386 4.70386 1 10.5 1C16.2961 1 21 5.70386 21 11.5C21 17.2961 16.2961 22 10.5 22C4.70386 22 0 17.2961 0 11.5ZM10.5 2C5.25614 2 1 6.25614 1 11.5C1 16.7439 5.25614 21 10.5 21C15.7439 21 20 16.7439 20 11.5C20 6.25614 15.7439 2 10.5 2ZM10.5 5C9.11614 5 8 6.11614 8 7.5C8 8.88386 9.11614 10 10.5 10C11.8839 10 13 8.88386 13 7.5C13 6.11614 11.8839 5 10.5 5ZM7 7.5C7 5.56386 8.56386 4 10.5 4C12.4361 4 14 5.56386 14 7.5C14 9.43614 12.4361 11 10.5 11C8.56386 11 7 9.43614 7 7.5ZM5.0127 15.3441C6.22579 17.0714 8.23547 18.2 10.5 18.2C12.7645 18.2 14.7742 17.0714 15.9873 15.3442C15.9429 15.0735 15.7831 14.8002 15.4881 14.5244C15.139 14.1978 14.6355 13.903 14.0422 13.6551C12.8537 13.1585 11.4266 12.9 10.5 12.9C9.56826 12.9 8.14122 13.1585 6.95418 13.655C6.36169 13.9028 5.85913 14.1976 5.51081 14.5241C5.21658 14.7998 5.05695 15.0731 5.0127 15.3441ZM6.56832 12.7325C7.87379 12.1865 9.43174 11.9 10.5 11.9C11.5634 11.9 13.1213 12.1865 14.4278 12.7324C15.082 13.0058 15.7035 13.3565 16.1712 13.7941C16.641 14.2335 16.9897 14.7949 16.9999 15.4725L17.0023 15.6276L16.9164 15.7569C15.5376 17.8303 13.1744 19.2 10.5 19.2C7.82556 19.2 5.46236 17.8303 4.08364 15.7569L3.99772 15.6276L4.00006 15.4725C4.01026 14.7954 4.35791 14.234 4.82701 13.7944C5.29399 13.3567 5.91456 13.0059 6.56832 12.7325Z" fill="#211B4E"/>
</svg>
