<svg width="24" height="24" viewBox="0 0 24 24" fill="none" xmlns="http://www.w3.org/2000/svg">
<path fill-rule="evenodd" clip-rule="evenodd" d="M1.82218 3.82163C2.02847 3.61534 2.30826 3.49945 2.6 3.49945H10C10.663 3.49945 11.2989 3.76284 11.7678 4.23168C11.8519 4.31582 11.9294 4.40534 12 4.49943C12.0706 4.40534 12.1481 4.31582 12.2322 4.23168C12.7011 3.76284 13.337 3.49945 14 3.49945H21.4C21.5445 3.49945 21.6875 3.5279 21.821 3.58318C21.9544 3.63846 22.0757 3.71949 22.1778 3.82163C22.28 3.92378 22.361 4.04504 22.4163 4.1785C22.4715 4.31196 22.5 4.455 22.5 4.59945V17.7135C22.5 17.7631 22.4928 17.8111 22.4793 17.8564C22.4928 17.9018 22.5 17.9498 22.5 17.9994C22.5 18.2756 22.2761 18.4994 22 18.4994H14C13.7239 18.4994 13.5 18.2756 13.5 17.9994C13.5 17.7233 13.7239 17.4994 14 17.4994H21.5V4.59945C21.5 4.58632 21.4974 4.57331 21.4924 4.56118C21.4874 4.54905 21.48 4.53803 21.4707 4.52874C21.4614 4.51946 21.4504 4.51209 21.4383 4.50706C21.4261 4.50204 21.4131 4.49945 21.4 4.49945H14C13.6022 4.49945 13.2206 4.65749 12.9393 4.93879C12.658 5.22009 12.5 5.60163 12.5 5.99945V19.9995C12.5 20.2756 12.2761 20.4995 12 20.4995C11.7239 20.4995 11.5 20.2756 11.5 19.9995V5.99945C11.5 5.60163 11.342 5.22009 11.0607 4.93879C10.7794 4.65749 10.3978 4.49945 10 4.49945H2.6C2.57348 4.49945 2.54804 4.50999 2.52929 4.52874C2.51054 4.54749 2.5 4.57293 2.5 4.59945V17.4994H10C10.2761 17.4994 10.5 17.7233 10.5 17.9994C10.5 18.2756 10.2761 18.4994 10 18.4994H2C1.72386 18.4994 1.5 18.2756 1.5 17.9994C1.5 17.9498 1.50725 17.9018 1.52075 17.8564C1.50725 17.8111 1.5 17.7631 1.5 17.7135V4.59945C1.5 4.30771 1.61589 4.02792 1.82218 3.82163Z" fill="#211B4E"/>
<path fill-rule="evenodd" clip-rule="evenodd" d="M9.50003 17.9996C9.50003 17.7235 9.72389 17.4996 10 17.4996C10.6631 17.4996 11.299 17.763 11.7678 18.2319C11.8519 18.316 11.9295 18.4055 12 18.4996C12.0706 18.4055 12.1481 18.316 12.2323 18.2319C12.7011 17.763 13.337 17.4996 14 17.4996C14.2762 17.4996 14.5 17.7235 14.5 17.9996C14.5 18.2758 14.2762 18.4996 14 18.4996C13.6022 18.4996 13.2207 18.6577 12.9394 18.939C12.6581 19.2203 12.5 19.6018 12.5 19.9996C12.5 20.2758 12.2762 20.4996 12 20.4996C11.7239 20.4996 11.5 20.2758 11.5 19.9996C11.5 19.6018 11.342 19.2203 11.0607 18.939C10.7794 18.6577 10.3979 18.4996 10 18.4996C9.72389 18.4996 9.50003 18.2758 9.50003 17.9996Z" fill="#211B4E"/>
<path fill-rule="evenodd" clip-rule="evenodd" d="M3.60767 6.9379C3.60767 6.71699 3.78675 6.5379 4.00767 6.5379L9.60004 6.5379C9.82096 6.5379 10 6.71699 10 6.9379C10 7.15882 9.82096 7.3379 9.60004 7.3379L4.00767 7.3379C3.78675 7.3379 3.60767 7.15882 3.60767 6.9379Z" fill="#211B4E"/>
<path fill-rule="evenodd" clip-rule="evenodd" d="M14.0001 6.9379C14.0001 6.71699 14.1792 6.5379 14.4001 6.5379L19.9925 6.5379C20.2134 6.5379 20.3925 6.71699 20.3925 6.9379C20.3925 7.15882 20.2134 7.3379 19.9925 7.3379L14.4001 7.3379C14.1792 7.3379 14.0001 7.15882 14.0001 6.9379Z" fill="#211B4E"/>
<path fill-rule="evenodd" clip-rule="evenodd" d="M3.60767 10.0978C3.60767 9.87687 3.78675 9.69778 4.00767 9.69778L9.60004 9.69778C9.82096 9.69778 10 9.87687 10 10.0978C10 10.3187 9.82096 10.4978 9.60004 10.4978L4.00767 10.4978C3.78675 10.4978 3.60767 10.3187 3.60767 10.0978Z" fill="#211B4E"/>
<path fill-rule="evenodd" clip-rule="evenodd" d="M14.0001 10.0978C14.0001 9.87687 14.1792 9.69778 14.4001 9.69778L19.9925 9.69778C20.2134 9.69778 20.3925 9.87687 20.3925 10.0978C20.3925 10.3187 20.2134 10.4978 19.9925 10.4978L14.4001 10.4978C14.1792 10.4978 14.0001 10.3187 14.0001 10.0978Z" fill="#211B4E"/>
<path fill-rule="evenodd" clip-rule="evenodd" d="M3.60767 13.2572C3.60767 13.0363 3.78675 12.8572 4.00767 12.8572L9.60004 12.8572C9.82096 12.8572 10 13.0363 10 13.2572C10 13.4781 9.82096 13.6572 9.60004 13.6572L4.00767 13.6572C3.78675 13.6572 3.60767 13.4781 3.60767 13.2572Z" fill="#211B4E"/>
<path fill-rule="evenodd" clip-rule="evenodd" d="M14.0001 13.2572C14.0001 13.0363 14.1792 12.8572 14.4001 12.8572L19.9925 12.8572C20.2134 12.8572 20.3925 13.0363 20.3925 13.2572C20.3925 13.4781 20.2134 13.6572 19.9925 13.6572L14.4001 13.6572C14.1792 13.6572 14.0001 13.4781 14.0001 13.2572Z" fill="#211B4E"/>
</svg>
