<svg width="21" height="20" viewBox="0 0 21 20" fill="none" xmlns="http://www.w3.org/2000/svg">
<path fill-rule="evenodd" clip-rule="evenodd" d="M10.9017 2.50002H17.5168V9.11507H16.0152V5.06375L9.60835 11.4706L8.54622 10.4095L14.9531 4.00262H10.9017V2.50002ZM4.51892 5.98774H8.52319V4.48613H4.51892C3.98792 4.48613 3.47867 4.69707 3.1032 5.07255C2.72772 5.44802 2.51678 5.95727 2.51678 6.48827V15.4979C2.51678 16.0289 2.72772 16.5381 3.1032 16.9136C3.47867 17.2891 3.98792 17.5 4.51892 17.5H13.5285C14.0595 17.5 14.5688 17.2891 14.9443 16.9136C15.3197 16.5381 15.5307 16.0289 15.5307 15.4979V11.4936H14.0291V15.4979C14.0291 15.6306 13.9763 15.7579 13.8825 15.8518C13.7886 15.9457 13.6613 15.9984 13.5285 15.9984H4.51892C4.38617 15.9984 4.25886 15.9457 4.16499 15.8518C4.07112 15.7579 4.01839 15.6306 4.01839 15.4979V6.48827C4.01839 6.35552 4.07112 6.22821 4.16499 6.13434C4.25886 6.04047 4.38617 5.98774 4.51892 5.98774Z" fill="#2F2E41"/>
<path fill-rule="evenodd" clip-rule="evenodd" d="M10.9017 2.50002H17.5167V9.11507H16.0151V5.06375L9.60829 11.4706L8.54616 10.4095L14.953 4.00262H10.9017V2.50002ZM4.51886 5.98774H8.52313V4.48613H4.51886C3.98786 4.48613 3.47861 4.69707 3.10314 5.07255C2.72766 5.44802 2.51672 5.95727 2.51672 6.48827V15.4979C2.51672 16.0289 2.72766 16.5381 3.10314 16.9136C3.47861 17.2891 3.98786 17.5 4.51886 17.5H13.5285C14.0595 17.5 14.5687 17.2891 14.9442 16.9136C15.3197 16.5381 15.5306 16.0289 15.5306 15.4979V11.4936H14.029V15.4979C14.029 15.6306 13.9763 15.7579 13.8824 15.8518C13.7885 15.9457 13.6612 15.9984 13.5285 15.9984H4.51886C4.38611 15.9984 4.2588 15.9457 4.16493 15.8518C4.07106 15.7579 4.01833 15.6306 4.01833 15.4979V6.48827C4.01833 6.35552 4.07106 6.22821 4.16493 6.13434C4.2588 6.04047 4.38611 5.98774 4.51886 5.98774Z" fill="#2F2E41"/>
</svg>
