<svg width="24" height="24" viewBox="0 0 24 24" fill="none" xmlns="http://www.w3.org/2000/svg">
<path fill-rule="evenodd" clip-rule="evenodd" d="M12 20.9995C16.9706 20.9995 21 16.9701 21 11.9995C21 7.02895 16.9706 2.99951 12 2.99951C7.02944 2.99951 3 7.02895 3 11.9995C3 16.9701 7.02944 20.9995 12 20.9995ZM12 21.9995C17.5228 21.9995 22 17.5224 22 11.9995C22 6.47666 17.5228 1.99951 12 1.99951C6.47715 1.99951 2 6.47666 2 11.9995C2 17.5224 6.47715 21.9995 12 21.9995Z" fill="#110F24" fill-opacity="0.4"/>
<path fill-rule="evenodd" clip-rule="evenodd" d="M15.375 11.9983C16.41 11.9983 17.2425 11.1583 17.2425 10.1234C17.2425 9.08837 16.41 8.24839 15.375 8.24839C14.3401 8.24839 13.5001 9.08837 13.5001 10.1234C13.5001 11.1583 14.3401 11.9983 15.375 11.9983ZM9.75004 11.2489C10.995 11.2489 11.9925 10.244 11.9925 8.99898C11.9925 7.754 10.995 6.74902 9.75004 6.74902C8.50505 6.74902 7.50006 7.754 7.50006 8.99898C7.50006 10.244 8.50505 11.2489 9.75004 11.2489ZM15.375 13.4977C14.0026 13.4977 11.2501 14.1877 11.2501 15.5602V17.2477H19.5V15.5602C19.5 14.1877 16.7475 13.4977 15.375 13.4977ZM9.74995 12.7496C8.00247 12.7496 4.5 13.6271 4.5 15.3746V17.2495H9.74995V15.5621C9.74995 14.9246 9.99745 13.8071 11.5274 12.9596C10.8749 12.8246 10.2449 12.7496 9.74995 12.7496Z" fill="#110F24" fill-opacity="0.4"/>
</svg>
