<svg width="24" height="25" viewBox="0 0 24 25" fill="none" xmlns="http://www.w3.org/2000/svg">
<path fill-rule="evenodd" clip-rule="evenodd" d="M3.51 4.39968C3.51017 3.02695 4.62071 1.89999 6 1.89999H14.2071L20.5 8.19289V20.4C20.5 21.7761 19.3761 22.9 18 22.9H5.99C4.6106 22.9 3.5 21.7729 3.5 20.4L3.51 4.39968ZM6 2.89999C5.1794 2.89999 4.51 3.57287 4.51 4.39999L4.5 20.4C4.5 20.4 4.5 20.3999 4.5 20.4C4.50008 21.227 5.16945 21.9 5.99 21.9H18C18.8239 21.9 19.5 21.2239 19.5 20.4V9.89999H12.5V2.89999H6ZM12.7071 2.89999L19.5 9.69289V8.6071L13.7929 2.89999H12.7071ZM13.5 5.1071V8.89999H17.2929L13.5 5.1071ZM7.5 11.9H16.5V14.9H7.5V11.9ZM8.5 12.9V13.9H15.5V12.9H8.5ZM7.5 15.9H16.5V18.9H7.5V15.9ZM8.5 16.9V17.9H15.5V16.9H8.5Z" fill="#211B4E"/>
</svg>
