<svg width="24" height="24" viewBox="0 0 24 24" fill="none" xmlns="http://www.w3.org/2000/svg">
<path fill-rule="evenodd" clip-rule="evenodd" d="M12.2354 14.6175C12.2421 14.6113 12.2487 14.6049 12.2552 14.5984C12.3919 14.4617 12.4687 14.2762 12.4687 14.0828C12.4687 13.6063 12.5849 13.087 13.4292 12.5203L13.4299 12.5198C14.4688 11.8215 15.6458 11.0303 15.6458 9.26877C15.6458 8.06356 14.9531 7.06929 13.6922 6.47294C13.2708 6.27398 12.6495 6.162 11.988 6.16981C11.0536 6.18127 10.2646 6.44065 9.64426 6.9396C8.4479 7.9021 8.35988 9.04221 8.35415 9.16877C8.34954 9.26453 8.36383 9.36025 8.3962 9.45049C8.42858 9.54072 8.47842 9.62369 8.54286 9.69467C8.60731 9.76564 8.6851 9.82323 8.7718 9.86413C8.8585 9.90504 8.95241 9.92848 9.04816 9.93309C9.14392 9.93771 9.23965 9.92342 9.32988 9.89104C9.42011 9.85866 9.50309 9.80883 9.57406 9.74438C9.64503 9.67994 9.70262 9.60215 9.74353 9.51545C9.78444 9.42875 9.80787 9.33484 9.81249 9.23908C9.81249 9.23023 9.87082 8.6271 10.5594 8.07294C10.9245 7.77919 11.3984 7.63335 12.0088 7.62554C12.4953 7.61981 12.8906 7.7021 13.0682 7.78648C13.8229 8.14533 14.1875 8.63023 14.1875 9.26877C14.1875 10.2078 13.6198 10.6349 12.6156 11.3089C11.5354 12.0344 11.0104 12.9417 11.0104 14.0828C11.0104 14.276 11.0871 14.4613 11.2236 14.598C11.2237 14.5982 11.2238 14.5983 11.224 14.5984C11.2349 14.6093 11.2461 14.6199 11.2576 14.63C11.3904 14.7469 11.5616 14.812 11.7396 14.812C11.9238 14.812 12.1008 14.7423 12.2354 14.6175ZM12.2803 15.9347C12.2198 15.8928 12.1548 15.8572 12.0861 15.8288C11.9753 15.7829 11.8581 15.7567 11.7396 15.7508C11.6545 15.7465 11.5687 15.7527 11.4843 15.7695C11.357 15.7948 11.2363 15.8435 11.128 15.9125C11.0643 15.9531 11.0049 16.0006 10.9509 16.0546C10.8052 16.2003 10.706 16.3859 10.6658 16.5879C10.6256 16.79 10.6463 16.9995 10.7251 17.1898C10.804 17.3801 10.9375 17.5428 11.1088 17.6573C11.2801 17.7717 11.4815 17.8328 11.6875 17.8328C11.9638 17.8328 12.2287 17.7231 12.4241 17.5277C12.6194 17.3324 12.7292 17.0674 12.7292 16.7912C12.7292 16.5851 12.6681 16.3837 12.5536 16.2124C12.4804 16.1029 12.3876 16.0089 12.2803 15.9347ZM8.61418 9.18131C8.6142 9.18105 8.61421 9.1808 8.61422 9.18054C8.6147 9.17201 8.61528 9.16322 8.61598 9.15417C8.61504 9.16293 8.61436 9.17172 8.61392 9.18053C8.6139 9.18078 8.61389 9.18104 8.61388 9.18129L8.61418 9.18131ZM0.799988 11.9995C0.799988 5.81592 5.81641 0.7995 12 0.7995C18.1836 0.7995 23.2 5.81592 23.2 11.9995C23.2 18.1831 18.1836 23.1995 12 23.1995C5.81641 23.1995 0.799988 18.1831 0.799988 11.9995ZM11.7481 16.6449C11.729 16.637 11.7084 16.6328 11.6875 16.6328C11.677 16.6328 11.6667 16.6339 11.6566 16.6359C11.6261 16.6419 11.5978 16.6569 11.5755 16.6792C11.5532 16.7015 11.5383 16.7298 11.5322 16.7603C11.5302 16.7704 11.5292 16.7807 11.5292 16.7912C11.5292 16.8121 11.5333 16.8326 11.5412 16.8518C11.5452 16.8613 11.55 16.8705 11.5558 16.8791C11.5674 16.8965 11.5823 16.9113 11.5995 16.9228C11.6081 16.9285 11.6173 16.9335 11.6269 16.9374C11.6462 16.9454 11.6668 16.9495 11.6875 16.9495C11.6978 16.9495 11.7082 16.9485 11.7184 16.9465C11.7491 16.9403 11.7773 16.9253 11.7994 16.9031C11.8216 16.881 11.8367 16.8528 11.8428 16.8221C11.8448 16.8118 11.8458 16.8015 11.8458 16.7912C11.8458 16.7705 11.8418 16.7499 11.8338 16.7306C11.8298 16.7209 11.8249 16.7118 11.8191 16.7032C11.8076 16.686 11.7928 16.6711 11.7755 16.6595C11.7668 16.6537 11.7576 16.6488 11.7481 16.6449ZM1.99999 11.9995C1.99999 6.47867 6.47915 1.9995 12 1.9995C17.5208 1.9995 22 6.47867 22 11.9995C22 17.5203 17.5208 21.9995 12 21.9995C6.47915 21.9995 1.99999 17.5203 1.99999 11.9995Z" fill="#211B4E"/>
</svg>
