<svg width="24" height="24" viewBox="0 0 24 24" fill="none" xmlns="http://www.w3.org/2000/svg">
<path d="M17.7143 15.5714H19.1429V19.1429H17.7143V15.5714ZM14.8571 12H16.2857V19.1429H14.8571V12ZM8.42858 19.1429C7.48172 19.1417 6.57397 18.7651 5.90445 18.0956C5.23492 17.426 4.85828 16.5183 4.85715 15.5714H6.28572C6.28572 15.9952 6.4114 16.4095 6.64686 16.7619C6.88232 17.1143 7.21698 17.389 7.60854 17.5512C8.0001 17.7134 8.43095 17.7558 8.84663 17.6731C9.2623 17.5904 9.64412 17.3863 9.9438 17.0867C10.2435 16.787 10.4476 16.4052 10.5303 15.9895C10.6129 15.5738 10.5705 15.1429 10.4083 14.7514C10.2461 14.3598 9.97147 14.0252 9.61908 13.7897C9.26669 13.5542 8.85239 13.4286 8.42858 13.4286V12C9.37578 12 10.2842 12.3763 10.954 13.046C11.6237 13.7158 12 14.6242 12 15.5714C12 16.5186 11.6237 17.427 10.954 18.0968C10.2842 18.7666 9.37578 19.1429 8.42858 19.1429Z" fill="#575BDE"/>
<path d="M20.5714 2H3.42857C3.04981 2.00038 2.68666 2.15101 2.41884 2.41884C2.15101 2.68666 2.00038 3.04981 2 3.42857V20.5714C2.00038 20.9502 2.15101 21.3133 2.41884 21.5812C2.68666 21.849 3.04981 21.9996 3.42857 22H20.5714C20.9501 21.9994 21.3132 21.8487 21.581 21.581C21.8487 21.3132 21.9994 20.9501 22 20.5714V3.42857C21.9996 3.04981 21.849 2.68666 21.5812 2.41884C21.3133 2.15101 20.9502 2.00038 20.5714 2ZM20.5714 8.42857H10.5714V3.42857H20.5714V8.42857ZM9.14286 3.42857V8.42857H3.42857V3.42857H9.14286ZM3.42857 20.5714V9.85714H20.5714L20.5729 20.5714H3.42857Z" fill="#575BDE"/>
</svg>
