<svg style="display: none" xmlns="http://www.w3.org/2000/svg">
  <symbol fill="none" viewBox="0 0 24 24" id="icon-dashboard">
    <path
      d="M17.7143 15.5714H19.1429V19.1429H17.7143V15.5714ZM14.8571 12H16.2857V19.1429H14.8571V12ZM8.42858 19.1429C7.48172 19.1417 6.57397 18.7651 5.90445 18.0956C5.23492 17.426 4.85828 16.5183 4.85715 15.5714H6.28572C6.28572 15.9952 6.4114 16.4095 6.64686 16.7619C6.88232 17.1143 7.21698 17.389 7.60854 17.5512C8.0001 17.7134 8.43095 17.7558 8.84663 17.6731C9.2623 17.5904 9.64412 17.3863 9.9438 17.0867C10.2435 16.787 10.4476 16.4052 10.5303 15.9895C10.6129 15.5738 10.5705 15.1429 10.4083 14.7514C10.2461 14.3598 9.97147 14.0252 9.61908 13.7897C9.26669 13.5542 8.85239 13.4286 8.42858 13.4286V12C9.37578 12 10.2842 12.3763 10.954 13.046C11.6237 13.7158 12 14.6242 12 15.5714C12 16.5186 11.6237 17.427 10.954 18.0968C10.2842 18.7666 9.37578 19.1429 8.42858 19.1429Z"
      fill="currentColor"
    ></path>
    <path
      d="M20.5714 2H3.42857C3.04981 2.00038 2.68666 2.15101 2.41884 2.41884C2.15101 2.68666 2.00038 3.04981 2 3.42857V20.5714C2.00038 20.9502 2.15101 21.3133 2.41884 21.5812C2.68666 21.849 3.04981 21.9996 3.42857 22H20.5714C20.9501 21.9994 21.3132 21.8487 21.581 21.581C21.8487 21.3132 21.9994 20.9501 22 20.5714V3.42857C21.9996 3.04981 21.849 2.68666 21.5812 2.41884C21.3133 2.15101 20.9502 2.00038 20.5714 2ZM20.5714 8.42857H10.5714V3.42857H20.5714V8.42857ZM9.14286 3.42857V8.42857H3.42857V3.42857H9.14286ZM3.42857 20.5714V9.85714H20.5714L20.5729 20.5714H3.42857Z"
      fill="currentColor"
    ></path>
  </symbol>
  <symbol fill="none" viewBox="0 0 21 20" id="icon-delete">
    <path
      fill-rule="evenodd"
      clip-rule="evenodd"
      d="M5.01668 15.8331C5.01668 16.7498 5.76668 17.4998 6.68335 17.4998H13.35C14.2667 17.4998 15.0167 16.7498 15.0167 15.8331V5.83315H5.01668V15.8331ZM15.85 3.33315H12.9333L12.1 2.49982H7.93335L7.10002 3.33315H4.18335V4.99982H15.85V3.33315Z"
      fill="currentColor"
    ></path>
  </symbol>
  <symbol fill="none" viewBox="0 0 21 20" id="icon-external-link">
    <path
      fill-rule="evenodd"
      clip-rule="evenodd"
      d="M10.9017 2.50002H17.5168V9.11507H16.0152V5.06375L9.60835 11.4706L8.54622 10.4095L14.9531 4.00262H10.9017V2.50002ZM4.51892 5.98774H8.52319V4.48613H4.51892C3.98792 4.48613 3.47867 4.69707 3.1032 5.07255C2.72772 5.44802 2.51678 5.95727 2.51678 6.48827V15.4979C2.51678 16.0289 2.72772 16.5381 3.1032 16.9136C3.47867 17.2891 3.98792 17.5 4.51892 17.5H13.5285C14.0595 17.5 14.5688 17.2891 14.9443 16.9136C15.3197 16.5381 15.5307 16.0289 15.5307 15.4979V11.4936H14.0291V15.4979C14.0291 15.6306 13.9763 15.7579 13.8825 15.8518C13.7886 15.9457 13.6613 15.9984 13.5285 15.9984H4.51892C4.38617 15.9984 4.25886 15.9457 4.16499 15.8518C4.07112 15.7579 4.01839 15.6306 4.01839 15.4979V6.48827C4.01839 6.35552 4.07112 6.22821 4.16499 6.13434C4.25886 6.04047 4.38617 5.98774 4.51892 5.98774Z"
      fill="currentColor"
    ></path>
    <path
      fill-rule="evenodd"
      clip-rule="evenodd"
      d="M10.9017 2.50002H17.5167V9.11507H16.0151V5.06375L9.60829 11.4706L8.54616 10.4095L14.953 4.00262H10.9017V2.50002ZM4.51886 5.98774H8.52313V4.48613H4.51886C3.98786 4.48613 3.47861 4.69707 3.10314 5.07255C2.72766 5.44802 2.51672 5.95727 2.51672 6.48827V15.4979C2.51672 16.0289 2.72766 16.5381 3.10314 16.9136C3.47861 17.2891 3.98786 17.5 4.51886 17.5H13.5285C14.0595 17.5 14.5687 17.2891 14.9442 16.9136C15.3197 16.5381 15.5306 16.0289 15.5306 15.4979V11.4936H14.029V15.4979C14.029 15.6306 13.9763 15.7579 13.8824 15.8518C13.7885 15.9457 13.6612 15.9984 13.5285 15.9984H4.51886C4.38611 15.9984 4.2588 15.9457 4.16493 15.8518C4.07106 15.7579 4.01833 15.6306 4.01833 15.4979V6.48827C4.01833 6.35552 4.07106 6.22821 4.16493 6.13434C4.2588 6.04047 4.38611 5.98774 4.51886 5.98774Z"
      fill="currentColor"
    ></path>
  </symbol>
  <symbol fill="none" viewBox="0 0 24 24" id="icon-eye">
    <path
      fill-rule="evenodd"
      clip-rule="evenodd"
      d="M12 4.49951C7 4.49951 2.73 7.60951 1 11.9995C2.73 16.3895 7 19.4995 12 19.4995C17 19.4995 21.27 16.3895 23 11.9995C21.27 7.60951 17 4.49951 12 4.49951ZM12 16.9995C9.24 16.9995 7 14.7595 7 11.9995C7 9.23951 9.24 6.99951 12 6.99951C14.76 6.99951 17 9.23951 17 11.9995C17 14.7595 14.76 16.9995 12 16.9995ZM12 8.99951C10.34 8.99951 9 10.3395 9 11.9995C9 13.6595 10.34 14.9995 12 14.9995C13.66 14.9995 15 13.6595 15 11.9995C15 10.3395 13.66 8.99951 12 8.99951Z"
      fill="currentColor"
    ></path>
  </symbol>
  <symbol fill="none" viewBox="0 0 24 24" id="icon-help">
    <path
      fill-rule="evenodd"
      clip-rule="evenodd"
      d="M12.2354 14.6175C12.2421 14.6113 12.2487 14.6049 12.2552 14.5984C12.3919 14.4617 12.4687 14.2762 12.4687 14.0828C12.4687 13.6063 12.5849 13.087 13.4292 12.5203L13.4299 12.5198C14.4688 11.8215 15.6458 11.0303 15.6458 9.26877C15.6458 8.06356 14.9531 7.06929 13.6922 6.47294C13.2708 6.27398 12.6495 6.162 11.988 6.16981C11.0536 6.18127 10.2646 6.44065 9.64426 6.9396C8.4479 7.9021 8.35988 9.04221 8.35415 9.16877C8.34954 9.26453 8.36383 9.36025 8.3962 9.45049C8.42858 9.54072 8.47842 9.62369 8.54286 9.69467C8.60731 9.76564 8.6851 9.82323 8.7718 9.86413C8.8585 9.90504 8.95241 9.92848 9.04816 9.93309C9.14392 9.93771 9.23965 9.92342 9.32988 9.89104C9.42011 9.85866 9.50309 9.80883 9.57406 9.74438C9.64503 9.67994 9.70262 9.60215 9.74353 9.51545C9.78444 9.42875 9.80787 9.33484 9.81249 9.23908C9.81249 9.23023 9.87082 8.6271 10.5594 8.07294C10.9245 7.77919 11.3984 7.63335 12.0088 7.62554C12.4953 7.61981 12.8906 7.7021 13.0682 7.78648C13.8229 8.14533 14.1875 8.63023 14.1875 9.26877C14.1875 10.2078 13.6198 10.6349 12.6156 11.3089C11.5354 12.0344 11.0104 12.9417 11.0104 14.0828C11.0104 14.276 11.0871 14.4613 11.2236 14.598C11.2237 14.5982 11.2238 14.5983 11.224 14.5984C11.2349 14.6093 11.2461 14.6199 11.2576 14.63C11.3904 14.7469 11.5616 14.812 11.7396 14.812C11.9238 14.812 12.1008 14.7423 12.2354 14.6175ZM12.2803 15.9347C12.2198 15.8928 12.1548 15.8572 12.0861 15.8288C11.9753 15.7829 11.8581 15.7567 11.7396 15.7508C11.6545 15.7465 11.5687 15.7527 11.4843 15.7695C11.357 15.7948 11.2363 15.8435 11.128 15.9125C11.0643 15.9531 11.0049 16.0006 10.9509 16.0546C10.8052 16.2003 10.706 16.3859 10.6658 16.5879C10.6256 16.79 10.6463 16.9995 10.7251 17.1898C10.804 17.3801 10.9375 17.5428 11.1088 17.6573C11.2801 17.7717 11.4815 17.8328 11.6875 17.8328C11.9638 17.8328 12.2287 17.7231 12.4241 17.5277C12.6194 17.3324 12.7292 17.0674 12.7292 16.7912C12.7292 16.5851 12.6681 16.3837 12.5536 16.2124C12.4804 16.1029 12.3876 16.0089 12.2803 15.9347ZM8.61418 9.18131C8.6142 9.18105 8.61421 9.1808 8.61422 9.18054C8.6147 9.17201 8.61528 9.16322 8.61598 9.15417C8.61504 9.16293 8.61436 9.17172 8.61392 9.18053C8.6139 9.18078 8.61389 9.18104 8.61388 9.18129L8.61418 9.18131ZM0.799988 11.9995C0.799988 5.81592 5.81641 0.7995 12 0.7995C18.1836 0.7995 23.2 5.81592 23.2 11.9995C23.2 18.1831 18.1836 23.1995 12 23.1995C5.81641 23.1995 0.799988 18.1831 0.799988 11.9995ZM11.7481 16.6449C11.729 16.637 11.7084 16.6328 11.6875 16.6328C11.677 16.6328 11.6667 16.6339 11.6566 16.6359C11.6261 16.6419 11.5978 16.6569 11.5755 16.6792C11.5532 16.7015 11.5383 16.7298 11.5322 16.7603C11.5302 16.7704 11.5292 16.7807 11.5292 16.7912C11.5292 16.8121 11.5333 16.8326 11.5412 16.8518C11.5452 16.8613 11.55 16.8705 11.5558 16.8791C11.5674 16.8965 11.5823 16.9113 11.5995 16.9228C11.6081 16.9285 11.6173 16.9335 11.6269 16.9374C11.6462 16.9454 11.6668 16.9495 11.6875 16.9495C11.6978 16.9495 11.7082 16.9485 11.7184 16.9465C11.7491 16.9403 11.7773 16.9253 11.7994 16.9031C11.8216 16.881 11.8367 16.8528 11.8428 16.8221C11.8448 16.8118 11.8458 16.8015 11.8458 16.7912C11.8458 16.7705 11.8418 16.7499 11.8338 16.7306C11.8298 16.7209 11.8249 16.7118 11.8191 16.7032C11.8076 16.686 11.7928 16.6711 11.7755 16.6595C11.7668 16.6537 11.7576 16.6488 11.7481 16.6449ZM1.99999 11.9995C1.99999 6.47867 6.47915 1.9995 12 1.9995C17.5208 1.9995 22 6.47867 22 11.9995C22 17.5203 17.5208 21.9995 12 21.9995C6.47915 21.9995 1.99999 17.5203 1.99999 11.9995Z"
      fill="currentColor"
    ></path>
  </symbol>
  <symbol fill="none" viewBox="0 0 24 25" id="icon-home">
    <path
      fill-rule="evenodd"
      clip-rule="evenodd"
      d="M8.9453 13.8711H15.0673V19.6999H17.9V11.6999H19.1334L12 5.27979L4.86655 11.6999H6.1V19.6999H8.9453V13.8711ZM13.9673 19.6262V14.9711H10.0453V19.6262H13.9673ZM5 20.7999V12.7999H2L12 3.7999L22 12.7999H19V20.7999H5Z"
      fill="currentColor"
    ></path>
  </symbol>
  <symbol fill="none" viewBox="0 0 24 24" id="icon-integrations">
    <path
      fill-rule="evenodd"
      clip-rule="evenodd"
      d="M9.59721 14.4081H3.4V20.5996H9.59721V14.4081ZM2 13.0081V21.9996H10.9972V13.0081H2Z"
      fill="currentColor"
    ></path>
    <path
      fill-rule="evenodd"
      clip-rule="evenodd"
      d="M20.3641 14.4081H14.1669V20.5996H20.3641V14.4081ZM12.7669 13.0081V21.9996H21.7641V13.0081H12.7669Z"
      fill="currentColor"
    ></path>
    <path
      fill-rule="evenodd"
      clip-rule="evenodd"
      d="M18.0728 3.91129L14.5834 5.92466L16.5976 9.41113L20.0871 7.39777L18.0728 3.91129ZM12.6704 5.41208L16.0853 11.323L22 7.91035L18.5851 1.99938L12.6704 5.41208Z"
      fill="currentColor"
    ></path>
    <path
      fill-rule="evenodd"
      clip-rule="evenodd"
      d="M9.59721 3.42383H3.4V9.61531H9.59721V3.42383ZM2 2.02383V11.0153H10.9972V2.02383H2Z"
      fill="currentColor"
    ></path>
  </symbol>
  <symbol fill="none" viewBox="0 0 24 25" id="icon-landing-pages">
    <path
      fill-rule="evenodd"
      clip-rule="evenodd"
      d="M3.51 4.39968C3.51017 3.02695 4.62071 1.89999 6 1.89999H14.2071L20.5 8.19289V20.4C20.5 21.7761 19.3761 22.9 18 22.9H5.99C4.6106 22.9 3.5 21.7729 3.5 20.4L3.51 4.39968ZM6 2.89999C5.1794 2.89999 4.51 3.57287 4.51 4.39999L4.5 20.4C4.5 20.4 4.5 20.3999 4.5 20.4C4.50008 21.227 5.16945 21.9 5.99 21.9H18C18.8239 21.9 19.5 21.2239 19.5 20.4V9.89999H12.5V2.89999H6ZM12.7071 2.89999L19.5 9.69289V8.6071L13.7929 2.89999H12.7071ZM13.5 5.1071V8.89999H17.2929L13.5 5.1071ZM7.5 11.9H16.5V14.9H7.5V11.9ZM8.5 12.9V13.9H15.5V12.9H8.5ZM7.5 15.9H16.5V18.9H7.5V15.9ZM8.5 16.9V17.9H15.5V16.9H8.5Z"
      fill="currentColor"
    ></path>
  </symbol>
  <symbol fill="none" viewBox="0 0 21 20" id="icon-pause">
    <path
      fill-rule="evenodd"
      clip-rule="evenodd"
      d="M5.01666 15.8332H8.35V4.16649H5.01666V15.8332ZM11.6833 4.16649V15.8332H15.0167V4.16649H11.6833Z"
      fill="currentColor"
    ></path>
  </symbol>
  <symbol fill="none" viewBox="0 0 24 24" id="icon-product-pages">
    <path
      d="M6 22C5.45 22 4.97933 21.8043 4.588 21.413C4.196 21.021 4 20.55 4 20V8C4 7.45 4.196 6.97933 4.588 6.588C4.97933 6.196 5.45 6 6 6H8C8 4.9 8.39167 3.95833 9.175 3.175C9.95833 2.39167 10.9 2 12 2C13.1 2 14.0417 2.39167 14.825 3.175C15.6083 3.95833 16 4.9 16 6H18C18.55 6 19.021 6.196 19.413 6.588C19.8043 6.97933 20 7.45 20 8V20C20 20.55 19.8043 21.021 19.413 21.413C19.021 21.8043 18.55 22 18 22H6ZM5.31701 20.732H18.6809V7.18464H16V10C16 10.2833 15.9043 10.5207 15.713 10.712C15.521 10.904 15.2833 11 15 11C14.7167 11 14.4793 10.904 14.288 10.712C14.096 10.5207 14 10.2833 14 10V8H10V10C10 10.2833 9.90433 10.5207 9.713 10.712C9.521 10.904 9.28333 11 9 11C8.71667 11 8.47933 10.904 8.288 10.712C8.096 10.5207 8 10.2833 8 10V7.18464H5.31701V20.732ZM10 6H14C14 5.45 13.8043 4.97933 13.413 4.588C13.021 4.196 12.55 4 12 4C11.45 4 10.9793 4.196 10.588 4.588C10.196 4.97933 10 5.45 10 6Z"
      fill="currentColor"
    ></path>
  </symbol>
  <symbol fill="none" viewBox="0 0 24 24" id="icon-profile">
    <path
      fill-rule="evenodd"
      clip-rule="evenodd"
      d="M1.5 11.9995C1.5 6.20337 6.20386 1.49951 12 1.49951C17.7961 1.49951 22.5 6.20337 22.5 11.9995C22.5 17.7957 17.7961 22.4995 12 22.4995C6.20386 22.4995 1.5 17.7957 1.5 11.9995ZM12 2.49951C6.75614 2.49951 2.5 6.75565 2.5 11.9995C2.5 17.2434 6.75614 21.4995 12 21.4995C17.2439 21.4995 21.5 17.2434 21.5 11.9995C21.5 6.75565 17.2439 2.49951 12 2.49951ZM12 5.49951C10.6161 5.49951 9.5 6.61565 9.5 7.99951C9.5 9.38337 10.6161 10.4995 12 10.4995C13.3839 10.4995 14.5 9.38337 14.5 7.99951C14.5 6.61565 13.3839 5.49951 12 5.49951ZM8.5 7.99951C8.5 6.06337 10.0639 4.49951 12 4.49951C13.9361 4.49951 15.5 6.06337 15.5 7.99951C15.5 9.93565 13.9361 11.4995 12 11.4995C10.0639 11.4995 8.5 9.93565 8.5 7.99951ZM6.5127 15.8436C7.72579 17.5709 9.73547 18.6995 12 18.6995C14.2645 18.6995 16.2742 17.5709 17.4873 15.8437C17.4429 15.573 17.2831 15.2997 16.9881 15.0239C16.639 14.6973 16.1355 14.4025 15.5422 14.1546C14.3537 13.658 12.9266 13.3995 12 13.3995C11.0683 13.3995 9.64122 13.6581 8.45418 14.1545C7.86169 14.4024 7.35913 14.6971 7.01081 15.0236C6.71658 15.2993 6.55695 15.5726 6.5127 15.8436ZM8.06832 13.232C9.37379 12.686 10.9317 12.3995 12 12.3995C13.0634 12.3995 14.6213 12.686 15.9278 13.2319C16.582 13.5053 17.2035 13.8561 17.6712 14.2936C18.141 14.733 18.4897 15.2944 18.4999 15.972L18.5023 16.1271L18.4164 16.2564C17.0376 18.3298 14.6744 19.6995 12 19.6995C9.32556 19.6995 6.96236 18.3298 5.58364 16.2564L5.49772 16.1271L5.50006 15.972C5.51026 15.2949 5.85791 14.7335 6.32701 14.2939C6.79399 13.8563 7.41456 13.5054 8.06832 13.232Z"
      fill="currentColor"
    ></path>
  </symbol>
  <symbol fill="none" viewBox="0 0 18 18" id="icon-search">
    <path
      fill-rule="evenodd"
      clip-rule="evenodd"
      d="M11.625 10.5H11.0325L10.8225 10.2975C11.5575 9.4425 12 8.3325 12 7.125C12 4.4325 9.8175 2.25 7.125 2.25C4.4325 2.25 2.25 4.4325 2.25 7.125C2.25 9.8175 4.4325 12 7.125 12C8.3325 12 9.4425 11.5575 10.2975 10.8225L10.5 11.0325V11.625L14.25 15.3675L15.3675 14.25L11.625 10.5ZM7.125 10.5C5.2575 10.5 3.75 8.9925 3.75 7.125C3.75 5.2575 5.2575 3.75 7.125 3.75C8.9925 3.75 10.5 5.2575 10.5 7.125C10.5 8.9925 8.9925 10.5 7.125 10.5Z"
      fill="currentColor"
    ></path>
  </symbol>
  <symbol fill="none" viewBox="0 0 24 24" id="icon-settings">
    <path
      fill-rule="evenodd"
      clip-rule="evenodd"
      d="M9.01453 2.35224C9.07976 1.85204 9.51263 1.49951 10 1.49951H14C14.4874 1.49951 14.9202 1.85204 14.9855 2.35224L15.3252 4.72175C15.7886 4.93283 16.2233 5.18766 16.6333 5.48126L18.8713 4.58244L18.8791 4.57961C19.3019 4.42589 19.8421 4.56696 20.0955 5.02375L22.0991 8.49001C22.3287 8.91089 22.2426 9.4519 21.8498 9.76195L21.848 9.76338L19.9585 11.2409C19.9832 11.4835 20 11.7347 20 11.9995C20 12.2643 19.9832 12.5156 19.9585 12.7581L21.8498 14.2371C22.2426 14.5471 22.3285 15.0881 22.0989 15.5089L22.093 15.5198L20.0955 18.9753C19.8504 19.4171 19.3243 19.5938 18.8678 19.4151L18.8637 19.4135L16.6305 18.5167C16.2243 18.8037 15.7905 19.0633 15.3253 19.2768L14.9855 21.6468C14.9202 22.147 14.4874 22.4995 14 22.4995H10C9.51263 22.4995 9.07976 22.147 9.01453 21.6468L8.67475 19.2773C8.21141 19.0662 7.77666 18.8114 7.36671 18.5178L5.12865 19.4166L5.12087 19.4194C4.69813 19.5731 4.15796 19.4321 3.90456 18.9753L1.90092 15.509C1.67135 15.0881 1.75745 14.5471 2.15018 14.2371L2.15199 14.2356L4.04163 12.758C4.01683 12.5124 4 12.2576 4 11.9995C4 11.7414 4.01683 11.4866 4.04163 11.2411L2.152 9.76338L2.15018 9.76195C1.77208 9.46346 1.64783 8.92078 1.90812 8.47756L3.90453 5.02376C4.14956 4.58197 4.67566 4.40525 5.1322 4.58389L5.13635 4.58551L7.36947 5.48237C7.77574 5.19528 8.20955 4.93575 8.67468 4.72227L9.01453 2.35224ZM19.43 12.9795L18.9339 12.9175C18.9726 12.6073 19 12.3102 19 11.9995C19 11.6888 18.9726 11.3918 18.9339 11.0815L18.8987 10.8003L21.2249 8.98119C21.2248 8.97895 21.2242 8.9756 21.2223 8.97133L19.2271 5.51973C19.2262 5.51963 19.225 5.51919 19.2239 5.51919C19.2231 5.5192 19.2224 5.51925 19.2219 5.5193L16.4814 6.61988L16.2551 6.44582C15.7678 6.07092 15.2462 5.76405 14.6804 5.53216L14.4157 5.42367L13.9964 2.49951H10.0036L9.58433 5.42367L9.31961 5.53216C8.75733 5.76261 8.23415 6.0789 7.74 6.44951L7.51484 6.61838L4.77416 5.51771L4.77302 5.51981L2.773 8.97954L5.1013 10.8003L5.06614 11.0815C5.02742 11.3913 5 11.6985 5 11.9995C5 12.3005 5.02742 12.6077 5.06614 12.9175L5.1013 13.1988L2.7751 15.0178C2.7752 15.0201 2.77577 15.0234 2.77774 15.0277L4.77289 18.4793C4.77382 18.4794 4.77503 18.4798 4.77606 18.4798C4.77691 18.4798 4.7776 18.4798 4.77813 18.4797L7.51858 17.3791L7.74486 17.5532C8.23224 17.9281 8.75382 18.235 9.31961 18.4669L9.58433 18.5753L10.0036 21.4995H13.9964L14.4157 18.5753L14.6804 18.4669C15.2427 18.2364 15.7659 17.9201 16.26 17.5495L16.4852 17.3806L19.2258 18.4813L19.227 18.4792L21.2223 15.0277C21.2242 15.0234 21.2248 15.0201 21.2249 15.0178L19.122 13.3734L19.43 12.9795ZM12 8.99951C10.3461 8.99951 9 10.3457 9 11.9995C9 13.6534 10.3461 14.9995 12 14.9995C13.6539 14.9995 15 13.6534 15 11.9995C15 10.3457 13.6539 8.99951 12 8.99951ZM8 11.9995C8 9.79337 9.79386 7.99951 12 7.99951C14.2061 7.99951 16 9.79337 16 11.9995C16 14.2057 14.2061 15.9995 12 15.9995C9.79386 15.9995 8 14.2057 8 11.9995Z"
      fill="currentColor"
    ></path>
  </symbol>
  <symbol fill="none" viewBox="0 0 24 24" id="icon-team">
    <path
      fill-rule="evenodd"
      clip-rule="evenodd"
      d="M12 20.9995C16.9706 20.9995 21 16.9701 21 11.9995C21 7.02895 16.9706 2.99951 12 2.99951C7.02944 2.99951 3 7.02895 3 11.9995C3 16.9701 7.02944 20.9995 12 20.9995ZM12 21.9995C17.5228 21.9995 22 17.5224 22 11.9995C22 6.47666 17.5228 1.99951 12 1.99951C6.47715 1.99951 2 6.47666 2 11.9995C2 17.5224 6.47715 21.9995 12 21.9995Z"
      fill="currentColor"
    ></path>
    <path
      fill-rule="evenodd"
      clip-rule="evenodd"
      d="M15.375 11.9983C16.41 11.9983 17.2425 11.1583 17.2425 10.1234C17.2425 9.08837 16.41 8.24839 15.375 8.24839C14.3401 8.24839 13.5001 9.08837 13.5001 10.1234C13.5001 11.1583 14.3401 11.9983 15.375 11.9983ZM9.75004 11.2489C10.995 11.2489 11.9925 10.244 11.9925 8.99898C11.9925 7.754 10.995 6.74902 9.75004 6.74902C8.50505 6.74902 7.50006 7.754 7.50006 8.99898C7.50006 10.244 8.50505 11.2489 9.75004 11.2489ZM15.375 13.4977C14.0026 13.4977 11.2501 14.1877 11.2501 15.5602V17.2477H19.5V15.5602C19.5 14.1877 16.7475 13.4977 15.375 13.4977ZM9.74995 12.7496C8.00247 12.7496 4.5 13.6271 4.5 15.3746V17.2495H9.74995V15.5621C9.74995 14.9246 9.99745 13.8071 11.5274 12.9596C10.8749 12.8246 10.2449 12.7496 9.74995 12.7496Z"
      fill="currentColor"
    ></path>
  </symbol>
  <symbol fill="none" viewBox="0 0 24 24" id="icon-activity">
    <path
      fill-rule="evenodd"
      clip-rule="evenodd"
      d="M3 17H21V15H3V17ZM3 20H21V19H3V20ZM3 13H21V10H3V13ZM3 4V8H21V4H3Z"
      fill="currentColor"
    ></path>
  </symbol>
  <symbol fill="none" viewBox="0 0 24 24" id="icon-bell">
    <path
      fill-rule="evenodd"
      clip-rule="evenodd"
      d="M12 22C13.1 22 14 21.1 14 20H10C10 21.1 10.89 22 12 22ZM18 16V11C18 7.93 16.36 5.36 13.5 4.68V4C13.5 3.17 12.83 2.5 12 2.5C11.17 2.5 10.5 3.17 10.5 4V4.68C7.63 5.36 6 7.92 6 11V16L4 18V19H20V18L18 16Z"
      fill="currentColor"
    ></path>
  </symbol>
  <symbol fill="none" viewBox="0 0 24 24" id="icon-blog-post">
    <path
      fill-rule="evenodd"
      clip-rule="evenodd"
      d="M1.82218 3.82163C2.02847 3.61534 2.30826 3.49945 2.6 3.49945H10C10.663 3.49945 11.2989 3.76284 11.7678 4.23168C11.8519 4.31582 11.9294 4.40534 12 4.49943C12.0706 4.40534 12.1481 4.31582 12.2322 4.23168C12.7011 3.76284 13.337 3.49945 14 3.49945H21.4C21.5445 3.49945 21.6875 3.5279 21.821 3.58318C21.9544 3.63846 22.0757 3.71949 22.1778 3.82163C22.28 3.92378 22.361 4.04504 22.4163 4.1785C22.4715 4.31196 22.5 4.455 22.5 4.59945V17.7135C22.5 17.7631 22.4928 17.8111 22.4793 17.8564C22.4928 17.9018 22.5 17.9498 22.5 17.9994C22.5 18.2756 22.2761 18.4994 22 18.4994H14C13.7239 18.4994 13.5 18.2756 13.5 17.9994C13.5 17.7233 13.7239 17.4994 14 17.4994H21.5V4.59945C21.5 4.58632 21.4974 4.57331 21.4924 4.56118C21.4874 4.54905 21.48 4.53803 21.4707 4.52874C21.4614 4.51946 21.4504 4.51209 21.4383 4.50706C21.4261 4.50204 21.4131 4.49945 21.4 4.49945H14C13.6022 4.49945 13.2206 4.65749 12.9393 4.93879C12.658 5.22009 12.5 5.60163 12.5 5.99945V19.9995C12.5 20.2756 12.2761 20.4995 12 20.4995C11.7239 20.4995 11.5 20.2756 11.5 19.9995V5.99945C11.5 5.60163 11.342 5.22009 11.0607 4.93879C10.7794 4.65749 10.3978 4.49945 10 4.49945H2.6C2.57348 4.49945 2.54804 4.50999 2.52929 4.52874C2.51054 4.54749 2.5 4.57293 2.5 4.59945V17.4994H10C10.2761 17.4994 10.5 17.7233 10.5 17.9994C10.5 18.2756 10.2761 18.4994 10 18.4994H2C1.72386 18.4994 1.5 18.2756 1.5 17.9994C1.5 17.9498 1.50725 17.9018 1.52075 17.8564C1.50725 17.8111 1.5 17.7631 1.5 17.7135V4.59945C1.5 4.30771 1.61589 4.02792 1.82218 3.82163Z"
      fill="currentColor"
    ></path>
    <path
      fill-rule="evenodd"
      clip-rule="evenodd"
      d="M9.50003 17.9996C9.50003 17.7235 9.72389 17.4996 10 17.4996C10.6631 17.4996 11.299 17.763 11.7678 18.2319C11.8519 18.316 11.9295 18.4055 12 18.4996C12.0706 18.4055 12.1481 18.316 12.2323 18.2319C12.7011 17.763 13.337 17.4996 14 17.4996C14.2762 17.4996 14.5 17.7235 14.5 17.9996C14.5 18.2758 14.2762 18.4996 14 18.4996C13.6022 18.4996 13.2207 18.6577 12.9394 18.939C12.6581 19.2203 12.5 19.6018 12.5 19.9996C12.5 20.2758 12.2762 20.4996 12 20.4996C11.7239 20.4996 11.5 20.2758 11.5 19.9996C11.5 19.6018 11.342 19.2203 11.0607 18.939C10.7794 18.6577 10.3979 18.4996 10 18.4996C9.72389 18.4996 9.50003 18.2758 9.50003 17.9996Z"
      fill="currentColor"
    ></path>
    <path
      fill-rule="evenodd"
      clip-rule="evenodd"
      d="M3.60767 6.9379C3.60767 6.71699 3.78675 6.5379 4.00767 6.5379L9.60004 6.5379C9.82096 6.5379 10 6.71699 10 6.9379C10 7.15882 9.82096 7.3379 9.60004 7.3379L4.00767 7.3379C3.78675 7.3379 3.60767 7.15882 3.60767 6.9379Z"
      fill="currentColor"
    ></path>
    <path
      fill-rule="evenodd"
      clip-rule="evenodd"
      d="M14.0001 6.9379C14.0001 6.71699 14.1792 6.5379 14.4001 6.5379L19.9925 6.5379C20.2134 6.5379 20.3925 6.71699 20.3925 6.9379C20.3925 7.15882 20.2134 7.3379 19.9925 7.3379L14.4001 7.3379C14.1792 7.3379 14.0001 7.15882 14.0001 6.9379Z"
      fill="currentColor"
    ></path>
    <path
      fill-rule="evenodd"
      clip-rule="evenodd"
      d="M3.60767 10.0978C3.60767 9.87687 3.78675 9.69778 4.00767 9.69778L9.60004 9.69778C9.82096 9.69778 10 9.87687 10 10.0978C10 10.3187 9.82096 10.4978 9.60004 10.4978L4.00767 10.4978C3.78675 10.4978 3.60767 10.3187 3.60767 10.0978Z"
      fill="currentColor"
    ></path>
    <path
      fill-rule="evenodd"
      clip-rule="evenodd"
      d="M14.0001 10.0978C14.0001 9.87687 14.1792 9.69778 14.4001 9.69778L19.9925 9.69778C20.2134 9.69778 20.3925 9.87687 20.3925 10.0978C20.3925 10.3187 20.2134 10.4978 19.9925 10.4978L14.4001 10.4978C14.1792 10.4978 14.0001 10.3187 14.0001 10.0978Z"
      fill="currentColor"
    ></path>
    <path
      fill-rule="evenodd"
      clip-rule="evenodd"
      d="M3.60767 13.2572C3.60767 13.0363 3.78675 12.8572 4.00767 12.8572L9.60004 12.8572C9.82096 12.8572 10 13.0363 10 13.2572C10 13.4781 9.82096 13.6572 9.60004 13.6572L4.00767 13.6572C3.78675 13.6572 3.60767 13.4781 3.60767 13.2572Z"
      fill="currentColor"
    ></path>
    <path
      fill-rule="evenodd"
      clip-rule="evenodd"
      d="M14.0001 13.2572C14.0001 13.0363 14.1792 12.8572 14.4001 12.8572L19.9925 12.8572C20.2134 12.8572 20.3925 13.0363 20.3925 13.2572C20.3925 13.4781 20.2134 13.6572 19.9925 13.6572L14.4001 13.6572C14.1792 13.6572 14.0001 13.4781 14.0001 13.2572Z"
      fill="currentColor"
    ></path>
  </symbol>
  <symbol fill="none" viewBox="0 0 24 25" id="icon-collection-pages">
    <path
      d="M5.42796 3.9709V10.2592L15.0264 19.8576L21.3147 13.5693L11.7163 3.9709H5.42796ZM4.05676 3.9709C4.05676 3.60724 4.20123 3.25847 4.45838 3.00132C4.71553 2.74417 5.0643 2.5997 5.42796 2.5997H11.7163C12.0799 2.59978 12.4286 2.74429 12.6857 3.00146L22.2841 12.5999C22.5412 12.857 22.6856 13.2057 22.6856 13.5693C22.6856 13.9329 22.5412 14.2816 22.2841 14.5387L15.9958 20.827C15.7387 21.0841 15.39 21.2285 15.0264 21.2285C14.6628 21.2285 14.3141 21.0841 14.0569 20.827L4.45852 11.2287C4.20136 10.9716 4.05684 10.6229 4.05676 10.2592V3.9709Z"
      fill="currentColor"
    ></path>
    <path
      d="M8.85599 8.08448C8.67416 8.08448 8.49977 8.01225 8.3712 7.88368C8.24262 7.7551 8.17039 7.58072 8.17039 7.39888C8.17039 7.21705 8.24262 7.04267 8.3712 6.91409C8.49977 6.78552 8.67416 6.71328 8.85599 6.71328C9.03782 6.71328 9.21221 6.78552 9.34078 6.91409C9.46936 7.04267 9.54159 7.21705 9.54159 7.39888C9.54159 7.58072 9.46936 7.7551 9.34078 7.88368C9.21221 8.01225 9.03782 8.08448 8.85599 8.08448ZM8.85599 9.45568C9.40149 9.45568 9.92464 9.23898 10.3104 8.85326C10.6961 8.46754 10.9128 7.94438 10.9128 7.39888C10.9128 6.85339 10.6961 6.33023 10.3104 5.94451C9.92464 5.55878 9.40149 5.34209 8.85599 5.34209C8.31049 5.34209 7.78734 5.55878 7.40161 5.94451C7.01589 6.33023 6.79919 6.85339 6.79919 7.39888C6.79919 7.94438 7.01589 8.46754 7.40161 8.85326C7.78734 9.23898 8.31049 9.45568 8.85599 9.45568ZM2.68559 10.9448C2.68567 11.3084 2.83019 11.6572 3.08735 11.9142L13.3124 22.1393L13.2534 22.1982C12.9963 22.4553 12.6476 22.5997 12.284 22.5997C11.9204 22.5997 11.5717 22.4553 11.3145 22.1982L1.71615 12.5998C1.45899 12.3428 1.31447 11.994 1.31439 11.6304L1.31439 5.34209C1.31439 4.97842 1.45886 4.62965 1.71601 4.3725C1.97316 4.11535 2.32193 3.97089 2.68559 3.97089V10.9448Z"
      fill="currentColor"
    ></path>
  </symbol>
</svg>
