<svg width="24" height="25" viewBox="0 0 24 25" fill="none" xmlns="http://www.w3.org/2000/svg">
<path d="M5.42796 3.9709V10.2592L15.0264 19.8576L21.3147 13.5693L11.7163 3.9709H5.42796ZM4.05676 3.9709C4.05676 3.60724 4.20123 3.25847 4.45838 3.00132C4.71553 2.74417 5.0643 2.5997 5.42796 2.5997H11.7163C12.0799 2.59978 12.4286 2.74429 12.6857 3.00146L22.2841 12.5999C22.5412 12.857 22.6856 13.2057 22.6856 13.5693C22.6856 13.9329 22.5412 14.2816 22.2841 14.5387L15.9958 20.827C15.7387 21.0841 15.39 21.2285 15.0264 21.2285C14.6628 21.2285 14.3141 21.0841 14.0569 20.827L4.45852 11.2287C4.20136 10.9716 4.05684 10.6229 4.05676 10.2592V3.9709Z" fill="#110F24" fill-opacity="0.4"/>
<path d="M8.85599 8.08448C8.67416 8.08448 8.49977 8.01225 8.3712 7.88368C8.24262 7.7551 8.17039 7.58072 8.17039 7.39888C8.17039 7.21705 8.24262 7.04267 8.3712 6.91409C8.49977 6.78552 8.67416 6.71328 8.85599 6.71328C9.03782 6.71328 9.21221 6.78552 9.34078 6.91409C9.46936 7.04267 9.54159 7.21705 9.54159 7.39888C9.54159 7.58072 9.46936 7.7551 9.34078 7.88368C9.21221 8.01225 9.03782 8.08448 8.85599 8.08448ZM8.85599 9.45568C9.40149 9.45568 9.92464 9.23898 10.3104 8.85326C10.6961 8.46754 10.9128 7.94438 10.9128 7.39888C10.9128 6.85339 10.6961 6.33023 10.3104 5.94451C9.92464 5.55878 9.40149 5.34209 8.85599 5.34209C8.31049 5.34209 7.78734 5.55878 7.40161 5.94451C7.01589 6.33023 6.79919 6.85339 6.79919 7.39888C6.79919 7.94438 7.01589 8.46754 7.40161 8.85326C7.78734 9.23898 8.31049 9.45568 8.85599 9.45568ZM2.68559 10.9448C2.68567 11.3084 2.83019 11.6572 3.08735 11.9142L13.3124 22.1393L13.2534 22.1982C12.9963 22.4553 12.6476 22.5997 12.284 22.5997C11.9204 22.5997 11.5717 22.4553 11.3145 22.1982L1.71615 12.5998C1.45899 12.3428 1.31447 11.994 1.31439 11.6304L1.31439 5.34209C1.31439 4.97842 1.45886 4.62965 1.71601 4.3725C1.97316 4.11535 2.32193 3.97089 2.68559 3.97089V10.9448Z" fill="#110F24" fill-opacity="0.4"/>
</svg>
